<?xml version="1.0" encoding="UTF-8"?>
<svg id="_Слой_2" data-name="Слой 2" xmlns="http://www.w3.org/2000/svg" xmlns:xlink="http://www.w3.org/1999/xlink" viewBox="0 0 2803.05 589.27">
  <defs>
    <style>
      .cls-1, .cls-2, .cls-3, .cls-4, .cls-5, .cls-6, .cls-7, .cls-8, .cls-9, .cls-10, .cls-11, .cls-12, .cls-13 {
        stroke-width: 0px;
      }

      .cls-1, .cls-14 {
        fill: #0b2a6b;
      }

      .cls-2 {
        fill: url(#_Безымянный_градиент_11-7);
      }

      .cls-3 {
        fill: url(#_Безымянный_градиент_11-3);
      }

      .cls-4 {
        fill: url(#_Безымянный_градиент_11-5);
      }

      .cls-15 {
        letter-spacing: 0em;
      }

      .cls-16 {
        font-family: SFProDisplay-Light, 'SF Pro Display';
        font-weight: 300;
      }

      .cls-14 {
        font-size: 220px;
      }

      .cls-17 {
        letter-spacing: -.09em;
      }

      .cls-18 {
        letter-spacing: -.03em;
      }

      .cls-5 {
        fill: url(#_Безымянный_градиент_11-9);
      }

      .cls-6 {
        fill: url(#_Безымянный_градиент_11-8);
      }

      .cls-7 {
        fill: #fff;
      }

      .cls-19 {
        font-family: SFProDisplay-Heavy, 'SF Pro Display';
        font-weight: 800;
      }

      .cls-8 {
        fill: url(#_Безымянный_градиент_11-6);
      }

      .cls-9 {
        fill: url(#_Безымянный_градиент_11-4);
      }

      .cls-10 {
        fill: #f4b400;
      }

      .cls-11 {
        fill: #d9a441;
      }

      .cls-12 {
        fill: url(#_Безымянный_градиент_11-2);
      }

      .cls-13 {
        fill: url(#_Безымянный_градиент_11);
      }
    </style>
    <radialGradient id="_Безымянный_градиент_11" data-name="Безымянный градиент 11" cx="462.73" cy="303.07" fx="462.73" fy="303.07" r="103.51" gradientUnits="userSpaceOnUse">
      <stop offset="0" stop-color="#fecc4d"/>
      <stop offset="1" stop-color="#d4951d"/>
    </radialGradient>
    <radialGradient id="_Безымянный_градиент_11-2" data-name="Безымянный градиент 11" cx="380.39" cy="99.13" fx="380.39" fy="99.13" r="84.31" xlink:href="#_Безымянный_градиент_11"/>
    <radialGradient id="_Безымянный_градиент_11-3" data-name="Безымянный градиент 11" cx="545.32" cy="99.36" fx="545.32" fy="99.36" r="84.35" xlink:href="#_Безымянный_градиент_11"/>
    <radialGradient id="_Безымянный_градиент_11-4" data-name="Безымянный градиент 11" cx="286.24" cy="142.16" fx="286.24" fy="142.16" r="94.26" xlink:href="#_Безымянный_градиент_11"/>
    <radialGradient id="_Безымянный_градиент_11-5" data-name="Безымянный градиент 11" cx="634.85" cy="145.24" fx="634.85" fy="145.24" r="94.09" xlink:href="#_Безымянный_градиент_11"/>
    <radialGradient id="_Безымянный_градиент_11-6" data-name="Безымянный градиент 11" cx="678.46" cy="220.5" fx="678.46" fy="220.5" r="99.93" xlink:href="#_Безымянный_градиент_11"/>
    <radialGradient id="_Безымянный_градиент_11-7" data-name="Безымянный градиент 11" cx="245.14" cy="217.82" fx="245.14" fy="217.82" r="97.74" xlink:href="#_Безымянный_градиент_11"/>
    <radialGradient id="_Безымянный_градиент_11-8" data-name="Безымянный градиент 11" cx="231.29" cy="308.44" fx="231.29" fy="308.44" r="84.97" xlink:href="#_Безымянный_градиент_11"/>
    <radialGradient id="_Безымянный_градиент_11-9" data-name="Безымянный градиент 11" cx="690.6" cy="312.48" fx="690.6" fy="312.48" r="87.96" xlink:href="#_Безымянный_градиент_11"/>
  </defs>
  <g id="_Слой_1-2" data-name="Слой 1">
    <text class="cls-14" transform="translate(1002.23 262.04)"><tspan class="cls-19"><tspan x="0" y="0">UR</tspan><tspan class="cls-18" x="302.5" y="0">G</tspan><tspan x="458.15" y="0">ANCH S</tspan><tspan class="cls-17" x="1285.52" y="0">TA</tspan><tspan x="1537.64" y="0">TE</tspan></tspan><tspan class="cls-16"><tspan x="0" y="208.93">UNIVERSI</tspan><tspan class="cls-15" x="895.04" y="208.93">T</tspan><tspan x="1020.51" y="208.93">Y</tspan></tspan></text>
    <g>
      <g>
        <path class="cls-13" d="m340.05,335.98c-2.74-56.81,60.23-114.01,124.42-112.61,77.25,1.68,120.09,64.64,121.03,112.48-12.57,3.79-25.27,7.33-37.79,11.44-28.23,9.25-56.05,19.51-81.77,34.75-1.5.89-4.37,1.07-5.82.23-36.48-20.98-76.07-33.91-116.32-45.14-1.15-.32-2.29-.7-3.76-1.14Z"/>
        <path class="cls-12" d="m446.66,190.39c-12.26,2.71-24.51,5.41-35.65,7.86-32.14-55.11-64.3-110.25-96.88-166.1C354.68,13.38,398.45,3.03,444.55,0c.7,63.72,1.4,126.95,2.1,190.39Z"/>
        <path class="cls-3" d="m514.47,198.57c-11.19-2.57-23.21-5.33-35.39-8.12.67-62.82,1.34-126.08,2.02-190.3,45.64,2.53,89.15,13.41,130.46,32.17-32.41,55.5-64.76,110.9-97.09,166.25Z"/>
        <path class="cls-9" d="m190.33,124.33c26.31-30.88,56.5-54.05,89.53-74.75,36.54,52.72,70.22,106.77,102.29,161.89-9.75,7.46-19.37,14.83-30.41,23.27-53.04-36.28-106.78-73.04-161.41-110.41Z"/>
        <path class="cls-4" d="m640.53,52.86c34.78,20.57,64.58,44.3,90.1,73.93-52.19,40.03-106.7,75.95-161.7,110.83-9.73-7.49-19.19-14.77-29.85-22.97,33.63-53.63,67.44-107.56,101.45-161.79Z"/>
        <path class="cls-8" d="m566.1,290.37c-3.56-5.71-7.15-11.47-10.48-16.81,54.48-35.2,144.67-87.3,199.79-122.92,20.98,29.94,37.52,63.27,45.88,100.99-67.52,1.47-169.6,23.97-235.2,38.74Z"/>
        <path class="cls-2" d="m124.29,251.23c7.95-37.06,25.15-70.03,45.86-100.52,54.73,35.39,141.12,82.51,195.82,117.88-2.74,4.41-5.82,9.77-9.37,14.8-.79,1.12-3.41,1.8-4.89,1.44-43.99-10.76-120.76-27.25-165.77-30.55-20.37-1.5-40.81-2.05-61.66-3.05Z"/>
        <path class="cls-6" d="m348.85,300.72c-2.21,10.68-4.27,20.63-6.5,31.41-63.55-11.39-163.41-10.7-228.61,1.24,1.53-17,2.98-33.2,4.48-49.84,66.06-.05,166.33,5.25,230.63,17.2Z"/>
        <path class="cls-5" d="m806.94,281.96c1.43,16.72,2.8,32.78,4.25,49.81-64.87-11.52-170.85-.04-234.45,11.22-2.25-10.33-4.41-20.24-6.73-30.88,63.71-11.99,170.43-30.13,236.93-30.15Z"/>
      </g>
      <g>
        <path class="cls-7" d="m463.07,468.44c-2.84,0-5.26-2.84-7.13-5-.76-.87-1.44-1.65-2.09-2.36-4.39-4.87-9.08-9.66-13.95-14.24-2.96-2.78-6.07-5.56-9.22-8.24-.04-.03-.08-.07-.12-.1-3.58-3.04-7.33-6.06-11.15-8.97-2.6-1.98-5.3-3.97-8.02-5.9-2.07-1.47-4.23-2.96-6.42-4.43-3.38-2.26-6.86-4.51-10.36-6.67-2.67-1.65-5.46-3.32-8.29-4.97-3.02-1.76-6.18-3.53-9.38-5.27-3.15-1.71-6.3-3.37-9.36-4.93,0,0-.02,0-.03-.01-2.09-1.07-4.29-2.17-6.54-3.27-2.81-1.37-5.6-2.7-8.3-3.94-8.59-3.96-17.33-7.61-25.99-10.86-4.56-1.71-7.22-6.52-6.27-11.34.13-.64.25-1.23.37-1.81l.15-.91,3.71-23.6c.02-.12.04-.24.06-.37l11.08-70.55c.01-.07.02-.14.03-.21l10.6-59.46c.01-.07.03-.15.04-.22l8.05-40.04c.02-.14.05-.28.08-.42.5-2.34.75-3.84.75-3.86l1.44-8.6c.01-.11.03-.22.05-.33.44-2.68.85-5.3.92-5.76l1.08-7.62c.01-.17.03-.34.06-.51.43-3.25,1.27-8.94,1.37-9.6l1.11-8.06c.9-12.94,3.61-21.91,8.78-29.03,5.19-7.15,12.75-12.31,24.5-16.72,13.69-5.14,28.88-8.33,46.42-9.76,6.63-.54,13.17-.81,19.44-.81,20.95,0,39.94,2.93,58.04,8.95,7.01,2.33,13.43,5.88,19.95,9.61,7.88,4.52,12.97,11.67,14.7,20.66.64,3.3,1.41,6.67,2.23,10.23.39,1.68.79,3.42,1.19,5.23.02.11.05.22.07.32l1.72,9.11c.04.13.07.25.1.38.06.21.11.42.16.63.02.08.04.16.06.24.04.15.07.3.11.45,0,0,.01.05.01.06.04.19.08.36.12.54.08.35.15.72.23,1.17.04.19.07.38.1.58.13.72.24,1.43.34,2.1l.02.1c.05.34.1.68.16,1.02,0,.03,0,.05.01.08.03.17.05.34.08.51l.04.22c.02.09.03.19.05.28,0,0,.04.21.04.21.06.36.11.61.16.83.01.05.02.09.03.14.02.1.04.21.07.31,0,.01,0,.03,0,.04.02.11.05.21.08.32.16.63.25,1.27.29,1.9l.49,2.96c.1.25.19.5.28.74.04.12.09.25.13.37v.04c.07.18.13.34.18.51.02.08.05.17.08.27.04.13.07.26.11.39.03.1.05.2.08.29.03.1.05.2.07.3,0,.03.01.06.02.09.05.22.1.44.14.65.04.21.08.41.12.62.04.24.07.46.09.59,0,.06.04.26.04.28.03.22.05.44.07.65v.12c.02.13.03.25.04.37,0,.11.02.23.02.35.01.17.02.34.03.51,0,0,0,.15,0,.19.01.47.01.95,0,1.44l2.68,11.96c.44,1.1.67,2.23.71,3.36l6.65,37.38,2.31,12.99c.14.74.27,1.47.41,2.21l.18.97c.1.53.2,1.07.29,1.6.09.48.17.95.26,1.42l.38,2.1c.16.89.32,1.77.48,2.66l.48,2.67c.31,1.72.62,3.43.92,5.14.11.62.53,2.95.53,2.95.02.1.04.19.05.27.1.55,1.13,6.36,1.13,6.36,0,0,.07.38.07.38.04.25.09.5.13.75l.94,5.32c.14.77.27,1.55.41,2.32.15.84.29,1.67.44,2.51l1.69,9.66,7.3,34.48c.07.33.14.67.21,1.01.35,1.67.73,3.42,1.11,5.21,0,0,.4,1.88.4,1.89.15.7.3,1.4.45,2.1,0,0,.24,1.14.25,1.15.06.3.13.6.19.9l.7,3.29c.05.23.1.46.15.7h0c.37,1.73.74,3.46,1.1,5.16l.18.85c.09.43.18.84.26,1.25l.25,1.17c.16.77.32,1.54.48,2.29l.12.58c.05.24.1.48.15.72.05.23.1.47.15.7l.02.11c.06.29.12.58.18.87l.05.22c.06.27.11.54.17.81,0,0,.15.72.21.99.14.65.27,1.29.39,1.91l5.86,27.68c.15.69.22,1.39.22,2.1,0,4.38-2.78,8.11-6.66,9.47-.46.17-.92.35-1.38.52-.01,0-.03.01-.04.02-1.66.63-3.28,1.26-4.82,1.87-1.09.43-2.17.87-3.23,1.3-7.83,3.19-15.58,6.66-23.04,10.32-2.01.98-4.04,2-6.05,3.03-.15.08-.29.15-.43.22-.02.01-.04.02-.06.03-8.69,4.47-17,9.13-24.7,13.84-1.74,1.06-3.49,2.15-5.19,3.24-2.53,1.61-5.04,3.26-7.5,4.92-1.89,1.28-3.76,2.57-5.56,3.86-2.65,1.88-5.28,3.81-7.84,5.76-.34.26-.67.51-.99.76l-.09.07c-3.82,2.94-7.56,5.97-11.1,9-3.03,2.59-6.02,5.27-8.88,7.96-5.6,5.27-10.98,10.83-15.99,16.53-1.88,2.14-3.99,4.2-6.83,4.2,0,0-.89.75-.9.75Z"/>
        <path class="cls-7" d="m594.44,371.81s0,0,0,0c-.55.21-1.11.41-1.66.62-1.66.62-3.31,1.26-4.96,1.91-1.11.43-2.21.87-3.32,1.32-8.03,3.24-15.93,6.74-23.65,10.48-2.08,1.01-4.16,2.04-6.21,3.08-.17.09-.34.17-.51.26-8.96,4.56-17.37,9.22-25.34,14.04-1.81,1.09-3.59,2.19-5.35,3.31-2.62,1.65-5.19,3.32-7.72,5.02-1.94,1.3-3.86,2.61-5.75,3.94-2.75,1.93-5.45,3.89-8.1,5.89-.37.28-.75.56-1.12.85-3.97,3.02-7.8,6.09-11.51,9.23-3.17,2.68-6.24,5.4-9.23,8.18-5.87,5.46-11.41,11.12-16.65,17.02-.73-.83-1.46-1.65-2.21-2.47-4.59-5.05-9.43-9.93-14.53-14.68-3.14-2.91-6.37-5.77-9.71-8.58h0c-3.73-3.13-7.58-6.2-11.57-9.21-2.71-2.04-5.47-4.05-8.3-6.03-2.17-1.52-4.38-3.03-6.63-4.52-3.47-2.3-7.02-4.57-10.67-6.8-2.79-1.7-5.63-3.39-8.52-5.05-3.14-1.81-6.35-3.59-9.62-5.35-3.19-1.71-6.38-3.38-9.59-5-2.24-1.14-4.48-2.24-6.72-3.33-2.83-1.37-5.67-2.7-8.51-4-8.84-4.04-17.74-7.71-26.64-11.02.12-.62.25-1.23.38-1.85l.2-1.16,3.75-23.6h0s0,0,0-.02l11.1-69.95,10.6-58.83,8.11-39.93s0,0,0,0c.55-2.59.83-4.23.83-4.23l1.35-7.99.15-.89s0,0,0,0c.5-2.98.95-5.84.95-5.84l1.17-8.22s-.01,0-.02.01c.44-3.31,1.36-9.41,1.36-9.41l1.16-8.37c1.43-21.36,8.03-30.01,26.87-37,14.14-5.25,28.77-7.86,43.77-9.07,25.03-2.02,49.66-.29,73.59,7.59,6.33,2.08,12.32,5.41,18.16,8.72,5.22,2.96,8.67,7.59,9.87,13.72.98,5,2.22,9.96,3.49,15.58l1.82,9.5c.06.2.12.39.17.59.05.2.11.4.15.6,0,.01,0,.02,0,.04.03.1.05.19.07.29,0,.03.01.05.02.08.03.12.06.24.08.36.07.32.13.63.19.95.03.14.05.29.08.44.11.63.21,1.27.31,1.91.06.39.12.79.19,1.18.03.21.07.43.11.64.04.2.07.41.11.61.01.07.02.13.04.2.07.38.14.76.23,1.15.04.18.08.35.11.53.04.2.09.39.14.59-.03-.03-.05-.07-.08-.1l.02.1.89,5.29c.05.09.09.18.14.28.04.09.09.19.13.28.09.21.18.42.25.63.03.09.06.17.09.26.03.08.05.16.08.25.01.04.02.08.03.11.02.08.05.15.07.23,0,.02,0,.03.01.05.02.09.05.17.07.26.03.11.05.22.07.33.03.12.05.25.07.38.02.1.03.19.05.29,0,.01,0,.02,0,.03,0,.04.01.08.02.12.01.09.02.18.03.27,0,.04,0,.08.01.12,0,.06.01.12.02.18,0,.07.01.14.02.22,0,.08,0,.17.01.25,0,.04,0,.09,0,.13.01.43,0,.88-.03,1.34-.03-.03-.05-.06-.08-.1-.03-.03-.06-.06-.08-.1l.17,1.02,3.1,13.73c.03.1.07.19.11.28.06.16.13.32.19.47-.06-.07-.12-.13-.17-.2l.2.87,6.78,37.69,2.31,12.89c.2,1.06.39,2.11.59,3.16.1.52.19,1.05.29,1.57.11.59.22,1.17.32,1.75s.21,1.16.32,1.74c.16.87.32,1.74.48,2.6.13.74.27,1.47.4,2.21.33,1.85.67,3.68,1,5.51.18,1.01.36,2.02.54,3.02,0,.04.01.07.02.11.17.97.35,1.94.52,2.91.21,1.15.41,2.3.62,3.44.06.36.13.71.19,1.07.09.5.18,1,.27,1.5.09.5.18,1,.27,1.5.13.76.27,1.51.4,2.27.28,1.59.56,3.19.85,4.79.19,1.07.38,2.14.57,3.21.19,1.08.38,2.16.57,3.24,0,.06.02.11.03.17.18,1.03.36,2.06.55,3.1l7.23,33.79s.01.06.02.09c.1.46.2.92.3,1.39.43,2,.88,4.1,1.35,6.26.06.26.11.53.17.79.23,1.05.46,2.12.69,3.19.07.32.14.64.21.96.23,1.08.47,2.17.7,3.26.05.22.09.43.14.65.37,1.71.74,3.43,1.1,5.12.06.29.12.58.19.88.09.4.17.8.26,1.2.06.27.11.54.17.8.19.87.37,1.74.55,2.59.03.15.06.3.1.45.06.28.12.56.18.83.06.28.12.55.17.82.06.27.12.55.17.81.07.34.14.67.21,1,.07.33.14.66.21.99.14.65.27,1.29.4,1.91l5.87,27.42Z"/>
        <g>
          <path class="cls-1" d="m480.03,437.94c-5.87,5.46-11.41,11.12-16.65,17.02-.73-.83-1.46-1.65-2.21-2.47-4.59-5.05-9.43-9.93-14.53-14.68,11.13-.05,22.26.01,33.39.12Z"/>
          <path class="cls-11" d="m480.84,324.24c-6.6-9.87-12.96-19.38-19.55-29.23-7.42,9.71-14.66,19.18-22.11,28.92-5.68-9.37-11.1-18.32-16.82-27.75-7.51,9.93-14.83,19.6-22.41,29.62-4.56-8.99-8.86-17.45-13.45-26.49-7.42,10.58-14.61,20.82-21.97,31.31-2.99-7.79-5.9-15.35-8.9-23.18-3.59,5.58-5.41,10.84-2.68,17.22,2.15,5.04,3.3,10.5,5,16.12-.93.31-1.95.66-3.2,1.08-1.86-6.26-3.65-12.32-5.71-19.26-3.14,7.25-6.03,13.92-8.92,20.58-.68-.28-1.36-.57-2.04-.85,6.45-17.57,12.91-35.14,19.36-52.71.36.13.72.26,1.08.4,2.64,8.17,5.27,16.33,8.09,25.05,7.55-11,14.72-21.45,22.34-32.55,4.61,9.57,8.72,18.1,13.02,27.02,7.56-10.26,14.79-20.09,22.16-30.09,5.39,9.21,10.61,18.12,16.19,27.67,7.51-9.81,14.6-19.07,21.92-28.64,6.26,9.64,12.38,19.06,18.65,28.7,6.8-9.22,13.44-18.22,20.3-27.52,6.18,10.17,12.15,20,18.5,30.45,5.63-8.57,10.99-16.73,16.68-25.38,5.58,10.08,10.97,19.81,16.78,30.31,4.29-8.13,8.32-15.77,12.61-23.9,3.38,8.42,6.7,16.7,10.02,24.98.35-.09.69-.17,1.04-.26-.88-5.32-1.76-10.63-2.65-15.95.42-.06.85-.11,1.27-.17,2.44,11.32,5.21,22.58,4.55,34.34-.38.1-.76.2-1.14.31-4.1-9.33-8.2-18.65-12.5-28.41-4.29,8.31-8.29,16.06-12.66,24.54-5.7-10-11.17-19.59-16.81-29.5-5.78,8.42-11.32,16.49-17.19,25.05-6.34-9.91-12.53-19.59-18.9-29.55-6.69,9.29-13.18,18.3-19.96,27.71Z"/>
          <path class="cls-1" d="m345.6,273.92c1.49-8.36,4.28-23.32,6.54-37.16.04-.18.08-.38.12-.6,1.22-5.97,3.93-11.56,8-16.11,1.46-1.63,3.04-3.09,4.64-4,13.37-7.63,27.92-11.87,42.96-14.73,25.14-4.78,50.52-5.5,75.94-3.93,20.72,1.28,48.75,5.86,60.76,10.88,5.75,2.41,12.49,3.6,20.2,14.65,3.39,18.07,6.21,34.16,9.32,51.67-10.11-9.75-22.77-11.85-35.1-14.61-18.99-4.26-38.33-6.33-57.81-6.58-15.42-.2-30.86-.55-46.26.09-24.54,1.02-48.88,3.98-72.48,11.26-6.02,1.86-12.03,3.98-16.83,9.17Zm217.37-17.35c-1.83-10.43-1.75-10.81-4.31-20.94-2.81-9.69-.93-8.9-15.47-16.18-18.34-6.38-37.42-9.18-56.65-10.36-31.52-1.94-63.73.77-93.69,7.3-1.3.35-2.86,2.05-3.19,3.32q-3.8,14.81-7.19,28.86c1.28-.13,2.47-.13,3.61-.38,22.28-4.87,44.88-6.41,67.61-6.72,22.47-.3,44.84.73,67.1,4.21,16.27,2.55,28.65,6.16,42.17,10.89Z"/>
          <path class="cls-1" d="m546.96,128.22c-13.93-14.64-31.85-19-50.02-22.7-15.85-3.23-31.94-3.91-48.02-3.18-20.44.92-40.47,4.21-59.23,12.97-6.76,3.16-13.88,7.05-18.46,13.37,1.43-21.36,8.03-30,26.87-37,14.14-5.25,28.77-7.86,43.77-9.07,25.03-2.02,49.66-.29,73.59,7.59,6.33,2.08,12.32,5.41,18.16,8.72,5.22,2.96,8.67,7.59,9.87,13.72.98,5,2.22,9.96,3.49,15.58Z"/>
          <path class="cls-11" d="m500.77,420.52c-3.97,3.02-7.8,6.09-11.51,9.23-14.71-.63-29.46-.82-44.17-.67-2.72.03-5.44.08-8.16.15h0c-3.73-3.13-7.58-6.2-11.57-9.21,23.46-1.6,46.99-1.19,70.47.19,1.65.1,3.29.2,4.94.3Z"/>
          <path class="cls-1" d="m587.83,372.34c-1.11.43-2.21.87-3.32,1.32-5.45-6.55-11.72-10.85-19.75-12.88-19.4-4.91-39.22-6.76-59.14-8.31-27.6-2.14-55.23-2.38-82.76-.38-20.11,1.46-40.07,5.15-60.09,7.81-2.72.36-3.67,1.64-3.96,4.5-.52,5.22-1.26,10.42-2.01,15.56-8.84-4.04-17.74-7.71-26.64-11.02.12-.62.25-1.23.38-1.85.29-1.82,2.03-3.52,3.57-4.34,10.18-5.47,21.34-8.2,32.6-10.01,16.1-2.59,32.26-5.26,48.5-6.3,20.5-1.31,41.1-1.32,61.66-1.29,12.56.02,25.17.66,37.67,1.89,20.48,2.03,41.01,4.13,60.78,10.45,1.27.41,2.54.87,3.77,1.41,4.92,2.14,7.9,6.99,8.75,13.44Z"/>
          <path class="cls-1" d="m574.67,288.3c-16.42-8.95-34.17-11.3-51.88-13.74-24.28-3.35-48.72-4.32-73.19-4-28.09.37-56.06,2.49-83.47,9.05-6.2,1.48-12.01,4.59-17.99,6.98-1.18.47-2.3,1.06-3.31,1.53-1.6-9.42,4.26-13.2,11.46-15.02,13.27-3.37,26.59-6.78,40.08-8.92,25.28-4.01,50.84-4.88,76.4-4.05,26.3.86,52.51,2.92,78.09,9.63,5.57,1.46,11.05,3.41,16.35,5.66,7.16,3.04,7.81,4.52,7.45,12.87Z"/>
          <path class="cls-11" d="m550.78,147.88c-9.82-12.75-23.85-16.03-37.6-19.54-21.36-5.46-43.23-6.61-65.13-5.62-21.06.95-41.87,4.07-61.27,12.93-6.49,2.96-12.34,7.33-18.07,10.81.44-3.31,1.36-9.41,1.36-9.41,0,0,5.53-7.05,9.95-9.7,11.61-6.95,24.23-10.94,37.32-13.68,15.92-3.34,32.08-4.69,48.31-4.03,21.6.88,42.99,3.5,63.05,12.25,5.49,2.4,10.41,6.16,15.48,9.48,5.78,3.78,5.04,10.25,6.61,16.51Z"/>
          <path class="cls-11" d="m372.04,198.35c.29.98.58,1.96.87,2.94.39.18.77.35,1.16.53.88-1.43,1.66-2.93,2.65-4.28,1.09-1.47,2.19-3.09,3.68-4.02.43-.27,2.2,1.6,3.81,2.83,2.26-.24,4.59-.89,4.75-4.8.05-1.1,2.61-2.83,4.08-2.9,1.13-.05,2.36,2.05,3.99,3.61,2.17-.73,5.6-.66,6.39-5.14.22-1.26,3.11-3.04,4.51-2.83,1.41.21,2.51,2.59,4.36,4.75,1.51-.25,4.22-.7,5.59-.93,1.31-3.17,1.91-5.66,3.32-7.55.59-.8,3.65-.99,4.26-.29,1.39,1.59,1.96,3.89,3.12,6.48,1.96-.2,4.9-.49,7.37-.73.81-2.54,1.32-4.94,2.4-7.05.38-.74,2.17-1.06,3.3-1.04,3.07.06,4.24,2.55,3.48,7.13h9.12c.87-2.56,1.13-5.1,2.49-6.68.83-.97,4.21-1.26,4.96-.46,1.48,1.58,1.92,4.12,3.08,6.96h8.47c-.07-3.03-1.04-6.79,3.9-7.03,3.55-.18,4.72,1.54,5.25,7.46.75.17,1.53.47,2.32.5,1.89.07,3.78.02,5.39.02.71-1.84,1.18-3.85,2.25-5.46.48-.72,2.18-.97,3.28-.88,3.26.27,4.58,2.89,3.88,7.69,1.16.14,2.31.35,3.48.41,1.21.07,2.43.02,3.78.02.09-.1.29-.28.42-.5.98-1.67,1.79-4.62,2.94-4.76,2.64-.31,4.36,1.81,4.49,4.65.22,4.63,4.62,1.96,5.89,3.55,1.54-1.5,3.82-4.11,4.09-3.91,2.17,1.55,3.96,3.63,5.87,5.55-.27.29-.54.58-.81.86,1.15.36,2.29.72,3.41,1.07,3.47-4.16,4.39-3.96,7.23.84.81,1.36,2.4,2.26,3.06,2.84,1.51-1.14,2.59-2.58,3.69-2.59.87-.01,1.82,1.68,2.65,2.68,1.3,1.56,2.52,3.17,4.21,5.3.41-1.81.63-2.76,1.15-5.06,3,5.61,5.44,10.17,7.87,14.72-12.06-10-26.54-12.98-40.78-16.22-25.08-5.7-50.63-6.66-76.2-5.61-24.47,1-48.58,4.57-71.29,14.37-6.21,2.68-12.22,6.48-18.87,10.27,1.69-5.08,4.97-8.39,7.61-13.27.83,1.54,1.2,2.23,1.92,3.56,1.94-2.87,3.72-5.5,5.49-8.13.4.18.79.36,1.19.54Z"/>
          <path class="cls-10" d="m515.73,409.84c-1.94,1.3-3.86,2.61-5.75,3.94-17.29-1.35-34.64-1.85-51.99-1.7-13.65.11-27.29.95-40.93,1.91-2.17-1.52-4.38-3.03-6.63-4.52,4.23-.36,8.46-.68,12.69-.92,21.31-1.24,42.74-1.32,64.1-.82,9.51.22,19.02,1.11,28.51,2.11Z"/>
          <path class="cls-10" d="m594.44,369.81c-.55.21-1.11.41-1.66.62-1.06-5.41-2.04-10.58-2.89-15.43.42-.05.88-.1,1.35-.14l3.2,14.96Z"/>
          <path class="cls-1" d="m560.86,384.13c-2.08,1.01-4.16,2.04-6.21,3.08-.17.09-.34.17-.51.26-32.85-5.98-66.08-8.12-99.44-7.53-18.11.32-36.24,1.31-54.27,2.97-9.52.88-18.96,2.65-28.41,4.36-2.24-1.14-4.48-2.24-6.72-3.33.43-.11.85-.21,1.27-.3,6.94-1.61,13.93-3.12,20.98-4.11,28.3-3.95,56.78-5.83,85.34-4.83,17.68.62,35.33,2.31,52.95,3.96,11.8,1.11,23.53,2.7,35.03,5.47Z"/>
          <path class="cls-11" d="m556.16,174.48c-5.24-6.25-12.03-9.7-19-12.58-16.27-6.72-33.37-9.99-50.84-11.77-17.18-1.75-34.33-1.64-51.43.19-21.08,2.25-41.84,6.17-60.55,16.95-3.45,1.99-6.68,3.67-10.05,6.33.56-2.59.83-4.23.83-4.23,0,0,1.56-1.17,2.78-2.32,7.61-7.27,17.01-11.28,26.85-14.35,24.62-7.67,49.95-9.64,75.57-8.98,20.99.54,41.61,3.3,61.4,10.63,7.81,2.89,15.74,5.95,21.18,12.73,1.63,2.03,2.21,4.91,3.26,7.4Z"/>
          <path class="cls-1" d="m552.74,159.18c-9.32-11.54-22.62-15.14-35.7-18.6-21.83-5.77-44.2-6.82-66.7-6.04-19.08.66-37.9,2.71-56.06,9-10.25,3.55-19.82,8.15-27.67,16.96.49-2.98.95-5.85.95-5.85,0,0,3.57-4.47,6.73-6.54,10.49-6.89,20.96-10.13,32.63-13.35,22.81-5.17,45.85-6.52,69.21-5.14,16.91,1,33.61,2.88,49.6,8.5,7.42,2.61,14.42,6.55,21.31,10.43,3.69,2.08,6.06,5.66,5.71,10.62Z"/>
          <path class="cls-10" d="m460.65,309.73c5.13,8.1,9.84,15.57,14.7,23.25-2.99.61-4.83.23-6.33-2.45-2.49-4.44-5.52-8.58-8.34-12.87-6.35,4.3-7.67,13.72-15.64,16.08-.35-.32-.7-.64-1.05-.96,2.68-3.8,5.34-7.61,8.06-11.38,2.68-3.7,5.42-7.36,8.6-11.66Z"/>
          <path class="cls-10" d="m403.76,334.41c5.55-7.55,11.09-15.09,16.87-22.95,4.4,7.53,8.47,14.49,12.7,21.72-3,.78-5.08.69-6.53-2.83-1.61-3.92-4.06-7.49-6.16-11.25-6.82,4.28-8.16,13.67-15.82,16.55-.35-.41-.7-.82-1.06-1.23Z"/>
          <path class="cls-10" d="m500.49,319.14c-3.02,4.22-5.87,7.82-8.25,11.7-1.58,2.58-3.31,3.7-6.69,2.42,5.05-7.05,10.02-14,15.13-21.15,4.64,7.62,9.25,15.19,13.86,22.76-.26.34-.51.68-.77,1.03-1.58-1.06-3.62-1.79-4.66-3.23-2.97-4.15-5.52-8.58-8.63-13.52Z"/>
          <path class="cls-10" d="m384.54,314.78c3.41,7.35,6.56,14.12,9.77,21.04-2.71,1.29-4.35.49-5.53-2.21-1.55-3.56-3.35-7-5.18-10.8-5.74,5.11-7.55,13.46-14.12,17.37-.4-.35-.81-.7-1.21-1.06,5.35-8.01,10.71-16.01,16.28-24.34Z"/>
          <path class="cls-10" d="m548.66,340c-1.28-1-2.96-1.75-3.77-3.05-2.71-4.34-5.12-8.87-7.95-13.88-2.77,4.15-5.49,7.89-7.83,11.87-1.3,2.21-2.6,2.33-4.83.93,4.18-6.43,8.34-12.84,12.81-19.72,4.22,7.91,8.26,15.45,12.29,23-.24.28-.48.57-.73.85Z"/>
          <path class="cls-11" d="m451.14,389.39v12.47h-8.86v-12.47h8.86Z"/>
          <path class="cls-10" d="m468.52,389.31h8.49v12.64h-8.49v-12.64Z"/>
          <path class="cls-10" d="m425.08,402.74h-8.59v-12.16c2.85-.23,5.6-.46,8.59-.7v12.86Z"/>
          <path class="cls-11" d="m503.09,402.98h-8.67v-13.03c2.76.28,5.63.57,8.67.88v12.15Z"/>
          <path class="cls-10" d="m528.81,393.29v8.22c-1.81,1.09-3.59,2.19-5.35,3.31-1.01-.13-2.05-.26-3.13-.39-.26-4.13-.51-8.12-.78-12.57,3.25.5,6.1.94,9.27,1.43Z"/>
          <path class="cls-10" d="m557.98,340.54c3.02-6.62,5.91-12.95,9.19-20.15,3.37,8.21,6.47,15.74,9.56,23.27-.51.26-1.02.52-1.54.78-1.27-2.62-2.57-5.22-3.8-7.85-1.28-2.73-2.49-5.5-3.92-8.67q-6.33,13.32-9.5,12.63Z"/>
          <path class="cls-11" d="m399.76,391.47v11.21c-2.79-1.7-5.63-3.39-8.52-5.05.12-1.56.34-3.16.53-5.03,2.63-.37,5.22-.74,7.99-1.13Z"/>
          <path class="cls-10" d="m459.61,154.27c3.32-.36,4.98,1.53,4.99,4.7.01,3.07-1.47,5.18-4.95,5.05-3.16-.12-5.18-1.7-5.25-4.92-.07-3.24,1.64-5.02,5.21-4.83Z"/>
          <path class="cls-10" d="m441.2,155.17c2.05.39,4.46.75,4.41,4.14-.04,3.3-2.21,5.53-5.59,5.5-2.93-.02-4.45-1.74-4.8-4.44-.34-2.63,2.43-5.1,5.97-5.2Z"/>
          <path class="cls-10" d="m479.35,164.3c-4.55-.24-6.64-1.91-6.75-4.97-.11-2.94,1.81-4.66,4.85-4.75,2.93-.09,5.99,2.66,5.23,5.27-.55,1.91-2.52,3.42-3.33,4.44Z"/>
          <path class="cls-11" d="m334.48,342.33c.8-2.89,1.53-9.5,2.41-12.36,3.46-11.22,3.84-22.44,7.44-33.61.5-1.55,1.74-2.87,3.41-3.84-5.17,15.45-7.26,34.59-12.43,50.04-.27-.08-.55-.15-.82-.23Z"/>
          <path class="cls-10" d="m449.99,175.41c-3,.13-4.5-1.46-4.65-4.32-.16-3.03,2.35-5.59,5.25-5.34,2.67.23,4.6,1.5,4.72,4.48.12,3.1-2.09,5.21-5.32,5.17Z"/>
          <path class="cls-10" d="m474.09,170.85c-.5,2.74-1.88,4.71-5.05,4.52-3.2-.19-5.01-2.03-4.8-5.28.19-3.05,2.08-4.61,5.13-4.42,3.05.19,4.55,2.03,4.73,5.17Z"/>
          <path class="cls-10" d="m423.53,157.49c2.59-.11,4.15.94,4.14,3.72-.02,3.23-2.82,6.42-5.84,5.87-1.47-.27-3.43-2.13-3.75-3.59-.71-3.24,2.08-5.93,5.46-6Z"/>
          <path class="cls-10" d="m474.49,280.21h13.52c-2.53,3.93-4.67,7.25-6.95,10.8-2.26-3.72-4.38-7.2-6.56-10.8Z"/>
          <path class="cls-10" d="m491.37,173.92c-.94.67-2.44,2.48-4.23,2.84-2.37.48-5.21-3.06-5.1-5.64.11-2.73,1.58-4.21,4.32-4.18,2.96.03,5.1,2.47,5.01,6.98Z"/>
          <path class="cls-10" d="m433.28,166.58c1.11,1.5,2.81,2.86,3.21,4.52.64,2.68-2.38,6.31-4.79,5.69-1.78-.45-3.99-2.32-4.5-4.01-.77-2.6,2.36-5.45,6.08-6.21Z"/>
          <path class="cls-10" d="m402.53,167.95c-.13-4.51,2.34-7.07,5.69-7.26,2.14-.12,3.3.51,3.25,2.92-.06,3.35-2.92,7.24-5.59,6.74-1.45-.27-2.65-1.87-3.35-2.4Z"/>
          <path class="cls-10" d="m495.49,156.65c2.3-.05,4.71,1.95,4.8,4.94.09,2.8-1.4,4.49-4.13,4.38-2.99-.12-5.19-1.68-5.27-5.01-.06-2.36.65-4.33,4.6-4.31Z"/>
          <path class="cls-10" d="m448.44,280.38c-2.35,3.55-4.47,6.76-6.86,10.38-1.92-3.39-3.79-6.66-5.9-10.38h12.76Z"/>
          <path class="cls-10" d="m505.14,178.95c-4.47-.71-6.25-2.82-5.73-5.75.29-1.6,2.2-3.6,3.8-4.1,2.2-.7,5.48,3.19,4.8,5.7-.45,1.69-2.08,3.06-2.87,4.15Z"/>
          <path class="cls-10" d="m419.51,173.76c-.78,3.55-3.64,6.94-5.98,6.34-1.43-.37-3.2-2.37-3.43-3.86-.46-2.96,2.85-6.3,5.39-5.64,1.51.39,2.69,2.07,4.02,3.17Z"/>
          <path class="cls-10" d="m525.28,284.17c-2.01,3.4-3.76,6.33-5.75,9.69-2.26-3.8-4.27-7.17-6.62-11.13,4.3.5,8.13.94,12.37,1.43Z"/>
          <path class="cls-10" d="m412.12,281.52c-3.01,4.36-5.32,7.71-7.84,11.37-1.52-3.4-2.85-6.37-4.44-9.92,3.8-.45,7.48-.89,12.29-1.46Z"/>
          <path class="cls-10" d="m515.47,165.15c.16,2.46-.86,3.91-3.46,3.74-3.32-.22-4.83-2.46-4.54-5.4.14-1.37,1.71-3.43,2.94-3.69,2.75-.58,5.07,2.24,5.05,5.35Z"/>
          <path class="cls-10" d="m403.31,176.72c-.13,4.52-2.9,8.04-5.46,7.45-1.11-.25-2.46-2.18-2.58-3.45-.29-3.06,2.58-6.43,5.06-6.08,1.26.18,2.35,1.61,2.98,2.08Z"/>
          <path class="cls-10" d="m522.41,179.91c-.76.6-2.11,2.55-3.31,2.45-3.04-.24-4.88-2.59-4.42-5.62.21-1.38,2.02-3.54,3.14-3.57,3.34-.07,4.24,2.66,4.58,6.74Z"/>
          <path class="cls-10" d="m389.47,180.66c.12,4.58-2.63,8.67-5.12,8.3-.86-.13-1.97-1.95-2.07-3.08-.34-3.74,2.36-7.55,4.97-7.11,1.04.18,1.88,1.58,2.22,1.89Z"/>
          <path class="cls-10" d="m388.73,172.24c-.13-4.32,2.34-7.52,5.13-7.28,1.05.09,2.68,1.6,2.82,2.63.43,3.17-2.19,6.73-4.67,6.49-1.34-.13-2.56-1.4-3.28-1.83Z"/>
          <path class="cls-10" d="m366.68,288.21c3.32-.59,6.3-1.13,10.06-1.8-2.47,4.25-4.56,7.86-6.96,11.98-1.05-3.45-1.99-6.52-3.1-10.18Z"/>
          <path class="cls-10" d="m528.51,170.06c-.55.46-1.87,2.45-2.96,2.33-2.8-.31-4.61-2.56-4.23-5.39.19-1.39,2.01-3.65,3.05-3.63,2.99.07,4.2,2.42,4.14,6.69Z"/>
          <path class="cls-10" d="m526.16,180.81c2.05-1.78,3.17-2.76,4.29-3.74,1.47,2.03,3.21,3.94,4.22,6.18.28.63-1.61,2.24-2.51,3.4-1.77-1.72-3.55-3.45-6.01-5.84Z"/>
          <path class="cls-10" d="m384.77,170.02c-1.38,3.16-2.45,5.89-3.81,8.47-.3.56-1.78,1-2.41.74-.62-.26-1.09-1.44-1.19-2.27-.52-4.29,2.23-7.53,7.4-6.95Z"/>
          <path class="cls-10" d="m541.26,173.32c-1.8,1.77-2.78,2.74-3.76,3.71-1.38-1.91-3.07-3.69-3.96-5.81-.3-.71,1.43-2.28,2.24-3.46,1.63,1.66,3.26,3.31,5.48,5.57Z"/>
          <path class="cls-11" d="m581.3,308.39c2.2,10.36,5.21,24.04,7.27,34-.49.08-1.07.25-1.56.33-2.31-11.37-4.63-22.75-6.94-34.12.41-.07.82-.13,1.23-.2Z"/>
          <path class="cls-10" d="m546.82,287.73c1.97.44,3.37.77,4.77,1.07,1.4.3,2.81.58,4.54.94-.67,1.55-1.22,2.86-1.8,4.16-.6,1.34-1.22,2.67-2.07,4.52-1.81-3.56-3.46-6.8-5.44-10.69Z"/>
          <path class="cls-10" d="m376.79,184.43c1.23,5.39.29,7.81-3.87,10.29-2.71-4.02-1.08-8.69,3.87-10.29Z"/>
          <path class="cls-10" d="m546.33,187.47c-1.77,1.5-2.86,3.12-3.68,2.99-2.9-.45-3.86-2.88-3.48-5.46.17-1.15,1.64-2.1,2.51-3.15,1.38,1.66,2.76,3.33,4.65,5.62Z"/>
          <path class="cls-10" d="m547.47,180.95c-3.74-2.37-4.54-5.25-2.54-9.22,3.9,1.92,4.93,5.68,2.54,9.22Z"/>
          <path class="cls-10" d="m369.25,184.25c-.53-3.87.13-7.11,3.53-9.52,1.98,4.57.77,7.87-3.53,9.52Z"/>
          <path class="cls-10" d="m554.1,194.95c-3.69-.93-6.33-5.78-4.98-7.81.29-.44,2.71-.25,2.86.14.87,2.31,1.37,4.77,2.12,7.67Z"/>
          <path class="cls-10" d="m363.82,198.87c.69-3.29,1.39-6.58,2.08-9.86.74.15,1.48.31,2.22.46-.65,3.3-1.3,6.6-1.96,9.9-.78-.17-1.57-.33-2.35-.5Z"/>
          <path class="cls-10" d="m553.7,176.46c.52,2.81.98,5.28,1.49,8.06-4.05-1.9-4.55-4.57-1.49-8.06Z"/>
        </g>
      </g>
      <g>
        <path class="cls-1" d="m232.36,466.32c37.53-.49,74.84,2.03,111.58,10.02,41.94,9.12,81.64,23.62,115.85,50.54,2.19,1.73,3.57,1.37,5.53-.18,30.8-24.27,66.43-37.96,104.05-47.22,53.69-13.22,108.3-15.52,163.14-12.27,29.91,1.77,59.85,4.84,89.44,9.47,27.13,4.24,53.82,11.28,80.66,17.28,6.74,1.51,13.36,3.58,19.91,5.8,1.18.4,2.62,2.94,2.37,4.2-1.12,5.81-2.57,11.58-4.33,17.24-2.44,7.85-7.35,10.76-15.47,9.46-19.36-3.09-38.62-7.14-58.1-9.17-29.49-3.07-59.09-5.14-88.69-6.92-37.81-2.28-75.49.45-112.94,5.53-31.41,4.26-62.07,11.69-91.92,22.75-27.02,10.02-52.65,22.55-76.81,38.17-3.73,2.41-7.08,5.46-10.95,7.6-1.58.87-4.67.92-6.06-.07-32.72-23.46-68.57-40.53-106.93-52.41-28.87-8.94-58.27-15.79-88.47-17.87-28.75-1.98-57.58-3.84-86.38-3.82-26.17.02-52.43,1.72-78.47,4.37-24.72,2.52-49.21,7.23-73.8,10.98-2.28.35-4.55.82-6.84,1.08-6.66.78-11.43-1.88-13.54-8.15-1.94-5.76-3.26-11.73-4.91-17.6-1.42-5.07,2.35-5.85,5.68-6.71,17.71-4.57,35.34-9.54,53.2-13.46,47.27-10.39,95.15-16.44,143.5-18.57,9.87-.44,19.78-.06,29.68-.06Z"/>
        <path class="cls-1" d="m846.23,369.9c-31.15-8.29-62.7-13.97-94.98-15.45-31.58-1.44-63-.69-94.07,5.63-34.41,7-67.42,18.07-98.81,34-36.25,18.4-68.9,41.34-94.82,73.09,0,0,0,0,0,0-.47.56-1.34.55-1.82,0-2.89-3.36-5.69-6.74-8.65-9.99-22.01-24.18-48.27-42.73-76.93-58.15-44.83-24.12-92.29-39.41-143.19-43.59-25.38-2.08-50.72-1.8-76.08.42-27.19,2.38-53.8,7.77-80.12,14.85-3.5.94-4.23,2.61-4.22,5.86.1,28.21.04,56.41.06,84.62,0,1.57.22,3.14.35,4.93,1.17-.12,1.8-.13,2.41-.25,24.2-4.92,48.25-10.93,72.64-14.55,38.73-5.75,77.75-7.06,116.93-4.64,50.58,3.12,99.67,12.95,146.87,31.37,15.29,5.97,29.93,13.59,45.34,20.67l3.26,1.88c1.44.83,3.22.83,4.67,0l8.41-4.86c122-59.57,248.62-61.92,378.47-30.25.09-1.54.26-2.99.26-4.44.09-27.71,0-55.42.37-83.13.07-5.1-2.07-6.89-6.35-8.03Z"/>
      </g>
    </g>
  </g>
</svg>