<?xml version="1.0" encoding="UTF-8"?>
<svg id="_Слой_2" data-name="Слой 2" xmlns="http://www.w3.org/2000/svg" viewBox="0 0 2619 1728">
  <defs>
    <style>
      .cls-1 {
        fill: #408cb3;
      }

      .cls-1, .cls-2, .cls-3, .cls-4, .cls-5 {
        stroke-width: 0px;
      }

      .cls-2 {
        fill: #fff;
      }

      .cls-3 {
        fill: #c8172b;
      }

      .cls-4 {
        fill: #ecbb39;
      }

      .cls-5 {
        fill: #479d3e;
      }
    </style>
  </defs>
  <g id="Layer_1" data-name="Layer 1">
    <g>
      <rect class="cls-2" y="1156.95" width="2619" height="27.77"/>
      <rect class="cls-2" y="549.64" width="2619" height="25.47"/>
      <path class="cls-5" d="m0,1534.21c0,107.03,86.76,193.79,193.79,193.79h2231.43c107.03,0,193.79-86.76,193.79-193.79v-349.49H0v349.49Z"/>
      <rect class="cls-3" y="575.11" width="2619" height="23.81"/>
      <rect class="cls-3" y="1133.24" width="2619" height="23.71"/>
      <rect class="cls-4" y="598.92" width="2619" height="534.32"/>
      <path class="cls-1" d="m2619,549.64V193.79c0-107.03-86.76-193.79-193.79-193.79H193.79C86.76,0,0,86.76,0,193.79v355.85h2619Zm-1797.66-129.65l-42.81-29.96-43.43,31.83,15.05-51.69-42.82-30.07h52.12l15.55-51.45,18.04,51.45h53.77l-42.79,31.86,17.32,48.03Zm166.72-79.89l-42.79,31.86,17.32,48.03-42.79-29.96-43.54,31.83,15.66-51.69-43.35-30.07h52.12l15.56-51.45,18.07,51.45h53.75Zm-158.06-90.82l15.66-52.09,17.96,52.09h53.88l-42.92,31.21,17.35,48.65-42.81-30.07-43.43,31.86,15.66-51.58-43.43-30.07h52.09Zm-141.25,0l15.66-52.09,17.96,52.09h53.85l-42.9,31.21,17.32,48.65-42.79-30.07-43.43,31.86,15.02-51.58-42.79-30.07h52.09Zm-70.58,90.82l15.55-51.45,18.07,51.45h53.78l-42.82,31.86,17.24,48.03-42.71-29.96-43.43,31.83,15.05-51.69-42.82-30.07h52.09Zm-200.35-217.05c31.32,0,60.24,8.15,85.1,22.66-5.21-.61-10.35-.61-15.66-.61-80.5,0-145.74,59.6-145.74,132.59s65.24,131.95,145.74,131.95c8.77,0,17.43-.61,25.58-1.77-26.62,18.04-59.71,29.03-95.01,29.03-90.31,0-164.31-70.69-164.31-157.02s74.01-156.83,164.31-156.83Z"/>
      <polygon class="cls-2" points="900.69 340.1 848.58 340.1 891.93 370.17 876.26 421.86 919.8 390.03 962.59 419.99 945.27 371.96 988.06 340.1 934.32 340.1 916.25 288.66 900.69 340.1"/>
      <polygon class="cls-2" points="793.04 340.1 775 288.66 759.44 340.1 707.33 340.1 750.14 370.17 735.09 421.86 778.53 390.03 821.34 419.99 804.02 371.96 846.81 340.1 793.04 340.1"/>
      <polygon class="cls-2" points="593.84 421.86 637.28 390.03 679.99 419.99 662.74 371.96 705.56 340.1 651.79 340.1 633.72 288.66 618.17 340.1 566.07 340.1 608.89 370.17 593.84 421.86"/>
      <polygon class="cls-2" points="664.43 330.94 707.86 299.08 750.65 329.15 733.33 280.5 776.23 249.29 722.37 249.29 704.41 197.2 688.75 249.29 636.66 249.29 679.45 279.35 664.43 330.94"/>
      <polygon class="cls-2" points="805.68 330.94 849.11 299.08 891.93 329.15 874.58 280.5 917.5 249.29 863.62 249.29 845.66 197.2 830 249.29 777.91 249.29 821.34 279.35 805.68 330.94"/>
      <path class="cls-2" d="m417.82,436.91c35.31,0,68.39-10.98,95.01-29.03-8.15,1.15-16.81,1.77-25.58,1.77-80.5,0-145.74-59.1-145.74-131.95s65.24-132.59,145.74-132.59c5.32,0,10.45,0,15.66.61-24.86-14.51-53.78-22.66-85.1-22.66-90.31,0-164.31,70.05-164.31,156.83s74.01,157.02,164.31,157.02Z"/>
    </g>
  </g>
</svg>